<?xml version="1.0" standalone="no"?>
<!DOCTYPE svg PUBLIC "-//W3C//DTD SVG 20010904//EN"
 "http://www.w3.org/TR/2001/REC-SVG-20010904/DTD/svg10.dtd">
<svg version="1.0" xmlns="http://www.w3.org/2000/svg"
 width="512.000000pt" height="512.000000pt" viewBox="0 0 512.000000 512.000000"
 preserveAspectRatio="xMidYMid meet">

<g transform="translate(0.000000,512.000000) scale(0.100000,-0.100000)"
fill="#000000" stroke="none">
<path d="M3705 4844 c-11 -2 -45 -9 -75 -15 -138 -28 -254 -104 -448 -292
-136 -132 -145 -139 -175 -133 -83 17 -245 148 -273 221 -9 25 -21 45 -27 45
-46 0 -494 -334 -716 -534 -230 -207 -332 -350 -412 -578 l-34 -97 17 -82 c24
-117 100 -266 178 -352 84 -91 223 -181 439 -283 97 -46 214 -103 261 -126
l85 -43 3 -131 3 -131 -68 10 c-214 29 -302 -27 -446 -281 -94 -166 -99 -176
-91 -197 10 -24 32 -17 48 14 19 36 125 108 172 117 49 9 142 -4 191 -27 66
-32 129 -94 162 -161 l31 -61 0 -304 0 -303 -49 31 c-190 116 -488 182 -676
150 -163 -29 -334 -124 -488 -273 -103 -101 -127 -138 -127 -199 0 -55 17 -82
50 -77 21 2 26 11 35 58 6 30 23 80 37 111 20 44 33 59 64 74 84 40 265 26
427 -31 173 -62 388 -182 494 -278 58 -52 86 -57 183 -31 30 8 56 15 58 15 1
0 2 -90 2 -200 l0 -200 35 0 35 0 0 210 0 210 48 30 c26 17 90 52 142 77 175
86 392 221 541 340 181 143 350 348 440 536 145 304 90 621 -150 865 -117 119
-206 175 -584 364 l-359 179 6 72 c18 201 53 413 92 552 28 101 83 223 111
246 11 9 58 20 116 27 243 30 460 152 704 399 159 161 213 248 213 343 0 47
-19 80 -56 102 -31 18 -130 31 -169 22z m35 -129 c52 -27 66 -114 30 -185 -34
-67 -141 -139 -258 -174 -106 -31 -333 -29 -365 3 -20 20 7 66 90 152 119 123
231 196 338 219 49 11 129 4 165 -15z m-1275 -585 c87 -53 172 -91 288 -129
37 -13 67 -24 67 -25 0 -2 -14 -36 -31 -77 -63 -153 -135 -452 -170 -702 -14
-102 2 -99 -159 -30 -157 68 -254 128 -346 218 -67 65 -90 96 -120 160 -73
153 -56 304 51 466 27 39 89 114 138 165 l89 94 54 -45 c30 -24 93 -67 139
-95z m345 -1678 c295 -147 454 -264 539 -396 76 -117 101 -240 81 -397 -29
-225 -122 -414 -273 -556 -80 -74 -143 -111 -271 -157 l-99 -36 -44 22 c-24
12 -64 43 -89 70 l-44 47 0 746 c0 600 2 745 13 745 7 0 91 -39 187 -88z"/>
</g>
</svg>
